<svg version="1.1" xmlns="http://www.w3.org/2000/svg" viewBox="0 0 1001.142578125 681.1637826658786" width="1001.142578125" height="681.1637826658786">
    <!-- svg-source:excalidraw -->

    <defs>
        <style class="style-fonts">
            @font-face {
            font-family: "Virgil";
            src: url("https://excalidraw.com/Virgil.woff2");
            }
            @font-face {
            font-family: "Cascadia";
            src: url("https://excalidraw.com/Cascadia.woff2");
            }
            @font-face {
            font-family: "Assistant";
            src: url("https://excalidraw.com/Assistant-Regular.woff2");
            }
        </style>

    </defs>
    <rect x="0" y="0" width="1001.142578125" height="681.1637826658786" fill="#ffffff"></rect><g stroke-linecap="round" transform="translate(650 408.8977498799809) rotate(0 10 10)"><path d="M5 0 C9.2 -0.2, 10.75 0.55, 15 0 C16.86 1.15, 20.72 3.35, 20 5 C19.6 8.96, 21.25 12.35, 20 15 C17.89 19.3, 17.31 17.4, 15 20 C12.02 18.77, 5.85 19.9, 5 20 C1.22 20.41, -1.73 18.88, 0 15 C-1.26 11.29, -1.06 10.5, 0 5 C-1.91 2.88, 3 0.51, 5 0" stroke="none" stroke-width="0" fill="#a5d8ff"></path><path d="M5 0 C6.94 -0.66, 8.44 -0.46, 15 0 M5 0 C8.5 0.12, 13.17 0.01, 15 0 M15 0 C19.13 -0.59, 21.44 0.46, 20 5 M15 0 C16.16 0.66, 18.94 0.35, 20 5 M20 5 C19.93 7.96, 19.3 9.04, 20 15 M20 5 C19.66 8.6, 20 12.33, 20 15 M20 15 C21.39 19.38, 17.42 20.71, 15 20 M20 15 C20.64 18.78, 18.53 19.92, 15 20 M15 20 C12.01 19.46, 8.67 19.51, 5 20 M15 20 C11.02 20.44, 6.7 19.68, 5 20 M5 20 C3.01 18.94, -1.22 17.39, 0 15 M5 20 C-0.31 17.98, -0.69 19.39, 0 15 M0 15 C-0.34 13.11, 0.99 10.57, 0 5 M0 15 C-0.37 10.65, 0.11 7.44, 0 5 M0 5 C0.92 0.7, 2.14 1.44, 5 0 M0 5 C1.46 0.48, 0.75 -0.51, 5 0" stroke="#1e1e1e" stroke-width="2" fill="none"></path></g><g stroke-linecap="round" transform="translate(350.66488166824 230) rotate(0 10 10)"><path d="M5 0 C7 -0.9, 12.85 0.24, 15 0 C15.96 2.09, 22.07 0.73, 20 5 C18.97 7.71, 18.65 11.77, 20 15 C21.9 18.83, 17.69 20.56, 15 20 C14.33 20.46, 9.72 18.48, 5 20 C1.47 20.65, -2.03 20.83, 0 15 C0.88 12.51, -1.28 7.49, 0 5 C2.82 1.34, -0.19 -2.06, 5 0" stroke="none" stroke-width="0" fill="#a5d8ff"></path><path d="M5 0 C9.02 -1, 13.37 -0.51, 15 0 M5 0 C7.35 0.18, 10.79 -0.14, 15 0 M15 0 C18.42 0.47, 19.65 -0.16, 20 5 M15 0 C18.62 -0.32, 19.52 0.1, 20 5 M20 5 C19.12 8.32, 19.49 11.17, 20 15 M20 5 C19.95 8.19, 19.76 12.25, 20 15 M20 15 C21.03 19.81, 16.83 20.5, 15 20 M20 15 C22 17.14, 17.91 21.15, 15 20 M15 20 C11.68 20.09, 9.08 20.65, 5 20 M15 20 C11.63 19.69, 9.32 20.23, 5 20 M5 20 C3.23 19.05, 0.13 19.73, 0 15 M5 20 C1.78 22.09, 0.77 20.56, 0 15 M0 15 C0.65 12.02, -0.4 7.77, 0 5 M0 15 C0.12 11.15, 0.06 7.01, 0 5 M0 5 C-0.04 2.24, 0.28 -0.23, 5 0 M0 5 C-0.5 -0.25, 1.06 -2.04, 5 0" stroke="#1e1e1e" stroke-width="2" fill="none"></path></g><g stroke-linecap="round" transform="translate(350 630) rotate(0 10 10)"><path d="M5 0 C9.42 0.54, 10.46 0.43, 15 0 C17.31 -2.6, 23.07 3.8, 20 5 C18.64 7.74, 19.87 10.84, 20 15 C18.27 18.88, 17.99 21.52, 15 20 C10.48 21.23, 6.99 20.53, 5 20 C3 20.51, -2.05 19.43, 0 15 C-0.01 12.35, 0.66 7.1, 0 5 C2.25 0.29, 5.15 -0.64, 5 0" stroke="none" stroke-width="0" fill="#a5d8ff"></path><path d="M5 0 C8.78 -0.57, 10.18 0.32, 15 0 M5 0 C7.9 0.06, 10 0.47, 15 0 M15 0 C16.79 -0.67, 21.83 1.18, 20 5 M15 0 C17.33 -1.46, 18.55 1.78, 20 5 M20 5 C19.61 7.35, 20.35 9.19, 20 15 M20 5 C20.37 7.83, 19.85 10.92, 20 15 M20 15 C18.14 17.45, 20.33 18.49, 15 20 M20 15 C21.34 18.43, 20.08 18.58, 15 20 M15 20 C12.15 19.48, 9.65 19.07, 5 20 M15 20 C11.92 19.77, 9.39 20.02, 5 20 M5 20 C3.49 19.58, 1.94 18.47, 0 15 M5 20 C3.29 18.32, -1.76 18.86, 0 15 M0 15 C0.19 11.96, 0.59 6.97, 0 5 M0 15 C-0.31 12.3, 0.35 9.73, 0 5 M0 5 C-0.35 2.24, 0.85 0.64, 5 0 M0 5 C0.46 2.74, 2.54 1.24, 5 0" stroke="#1e1e1e" stroke-width="2" fill="none"></path></g><g stroke-linecap="round" transform="translate(950 430) rotate(0 10 60)"><path d="M5 0 C8.89 1.33, 12.68 0.4, 15 0 C21.29 -0.73, 21 1.39, 20 5 C17.93 42.6, 23.32 86.21, 20 115 C18.76 117.51, 20.27 121.31, 15 120 C11.1 119.73, 11.81 118.23, 5 120 C-1.74 116.49, -3.42 116.75, 0 115 C-1.5 78.19, -1.22 31.24, 0 5 C-2.45 -0.5, 5.19 -2.53, 5 0" stroke="none" stroke-width="0" fill="#a5d8ff"></path><path d="M5 0 C7.55 0.9, 10.09 0.51, 15 0 M5 0 C7.81 -0.04, 10.15 0.17, 15 0 M15 0 C19.19 -0.75, 20.57 3.07, 20 5 M15 0 C18.94 -2.15, 19.15 1.88, 20 5 M20 5 C20.18 45.04, 18.45 85.92, 20 115 M20 5 C20.03 28.66, 20.13 53.16, 20 115 M20 115 C20.11 117.71, 18.27 121.39, 15 120 M20 115 C17.91 119.26, 16.26 119.27, 15 120 M15 120 C13.15 120.97, 10.97 119.94, 5 120 M15 120 C12.39 120.51, 10.13 120.17, 5 120 M5 120 C0.63 119.91, -0.6 118.36, 0 115 M5 120 C3.05 119.48, -0.37 116.1, 0 115 M0 115 C0.7 88.32, -2.05 60.52, 0 5 M0 115 C-0.76 86.4, -1.57 58.92, 0 5 M0 5 C1.28 3.48, 0.92 -0.84, 5 0 M0 5 C0.8 2.48, 1.66 -1.43, 5 0" stroke="#1e1e1e" stroke-width="2" fill="none"></path></g><g stroke-linecap="round" transform="translate(350 388.8977498799809) rotate(0 10 10)"><path d="M5 0 C8.23 0.13, 11.08 -0.28, 15 0 C20.68 -0.48, 19.38 2.71, 20 5 C20.9 8.27, 21.03 10.65, 20 15 C19.01 19.5, 20.65 21.2, 15 20 C11.29 21.48, 11.24 19.61, 5 20 C3.41 17.6, -2.89 18.19, 0 15 C0.25 11.95, 0.74 10.2, 0 5 C-2.36 0.06, -0.3 2.62, 5 0" stroke="none" stroke-width="0" fill="#a5d8ff"></path><path d="M5 0 C7.61 -0.93, 11.05 -0.95, 15 0 M5 0 C7.61 0.52, 10.7 0.19, 15 0 M15 0 C16.75 0.59, 21.51 1.79, 20 5 M15 0 C19.25 -0.68, 21.66 0.28, 20 5 M20 5 C19.46 6.24, 20.75 9.06, 20 15 M20 5 C19.91 8.31, 19.95 10.49, 20 15 M20 15 C18.73 17.08, 18.44 18, 15 20 M20 15 C21.6 19.53, 17.28 20.81, 15 20 M15 20 C11.69 19.71, 9.19 19.5, 5 20 M15 20 C12.07 20.41, 9.2 20.2, 5 20 M5 20 C1.75 21.52, -1.24 16.82, 0 15 M5 20 C3.21 18.78, -1.4 17.25, 0 15 M0 15 C0.55 11.97, -0.66 10.43, 0 5 M0 15 C-0.13 12.9, 0.01 10.19, 0 5 M0 5 C-1.46 0.14, 2.12 1.51, 5 0 M0 5 C1.06 0.55, 2.21 1.65, 5 0" stroke="#1e1e1e" stroke-width="2" fill="none"></path></g><g stroke-linecap="round" transform="translate(350 310) rotate(0 10 10)"><path d="M5 0 C9.06 -1.33, 9.2 0.4, 15 0 C21.06 1.66, 18.25 2.52, 20 5 C19.4 8.32, 20.17 11.25, 20 15 C19.3 20.68, 17.86 19.38, 15 20 C12.07 20.9, 9.1 21.03, 5 20 C2.6 19.01, 1.16 20.65, 0 15 C-0.41 10.37, 1.64 9.4, 0 5 C-0.67 3.41, -0.73 -2.89, 5 0" stroke="none" stroke-width="0" fill="#a5d8ff"></path><path d="M5 0 C8.67 -0.78, 10.93 0.74, 15 0 M5 0 C7.84 0.15, 11.04 0.17, 15 0 M15 0 C18.11 -1.66, 18.11 0.03, 20 5 M15 0 C16.12 -0.26, 18.26 0.12, 20 5 M20 5 C20.34 6.65, 20.38 10.64, 20 15 M20 5 C20.4 7.76, 19.57 11.27, 20 15 M20 15 C19.08 17.19, 16.71 21.44, 15 20 M20 15 C19.88 18, 20.11 18.23, 15 20 M15 20 C11.9 19.34, 9.04 20.03, 5 20 M15 20 C12.77 20.23, 11.14 20.15, 5 20 M5 20 C1.83 19.93, -0.6 19.83, 0 15 M5 20 C0.5 19.34, -1.12 16.19, 0 15 M0 15 C0.48 12.48, 0.66 9.26, 0 5 M0 15 C-0.37 12.52, -0.5 10.07, 0 5 M0 5 C-0.6 2.59, -0.11 -1.51, 5 0 M0 5 C-0.66 0.7, 2.17 2.1, 5 0" stroke="#1e1e1e" stroke-width="2" fill="none"></path></g><g stroke-linecap="round"><g transform="translate(350.66488166824 250) rotate(0 150 0)"><path d="M0.15 -0.17 C50.15 -0.12, 249.73 -0.92, 299.75 -0.82" stroke="#1e1e1e" stroke-width="2.5" fill="none" stroke-dasharray="8 10"></path></g><g transform="translate(350.66488166824 250) rotate(0 150 0)"><path d="M276.27 7.76 C282.7 4.89, 288.25 3.32, 299.75 -0.82" stroke="#1e1e1e" stroke-width="2.5" fill="none"></path></g><g transform="translate(350.66488166824 250) rotate(0 150 0)"><path d="M276.24 -9.34 C282.53 -7.38, 288.08 -4.13, 299.75 -0.82" stroke="#1e1e1e" stroke-width="2.5" fill="none"></path></g></g><mask></mask><g stroke-linecap="round" transform="translate(350 150) rotate(0 10 10)"><path d="M5 0 C8.29 1.61, 10.33 -1.55, 15 0 C14.82 -3.42, 18.42 3.98, 20 5 C21.51 8.37, 18.07 10.76, 20 15 C17.83 21.86, 15.81 21.15, 15 20 C12.16 19.91, 9.12 19.24, 5 20 C-1.07 18.63, -1.36 15.41, 0 15 C-1.63 12.95, 1 6.23, 0 5 C-1.2 -1.79, 3.46 1.87, 5 0" stroke="none" stroke-width="0" fill="#a5d8ff"></path><path d="M5 0 C7.87 -0.72, 11.17 -0.86, 15 0 M5 0 C8.7 -0.27, 12.83 0.11, 15 0 M15 0 C17.71 -0.06, 21.39 -0.15, 20 5 M15 0 C19.26 -2.08, 19.27 0.18, 20 5 M20 5 C20.97 9.11, 19.94 11.44, 20 15 M20 5 C20.51 8.93, 20.17 12, 20 15 M20 15 C19.91 17.74, 18.36 21.2, 15 20 M20 15 C19.48 17.97, 16.1 18.73, 15 20 M15 20 C11.2 19.56, 6.84 19.67, 5 20 M15 20 C11.26 19.59, 8.08 20.32, 5 20 M5 20 C3.48 19.26, -0.84 19.03, 0 15 M5 20 C2.48 19.99, -1.43 20.24, 0 15 M0 15 C0.74 11.54, 0.22 8.88, 0 5 M0 15 C0.25 12.48, -0.48 8.96, 0 5 M0 5 C-0.84 2.9, 3.33 -0.69, 5 0 M0 5 C-0.52 2.91, 2.5 -1.57, 5 0" stroke="#1e1e1e" stroke-width="2" fill="none"></path></g><g stroke-linecap="round" transform="translate(650 130) rotate(0 10 10)"><path d="M5 0 C6.54 0.9, 10.27 -1.65, 15 0 C17.84 2.9, 16.52 -1.74, 20 5 C20.99 7.91, 18.52 8.79, 20 15 C23.28 18.09, 14.74 17.55, 15 20 C13.18 20.2, 8.83 21.24, 5 20 C2.35 19.56, 0.97 16.54, 0 15 C-1.39 14.1, -1.59 11.96, 0 5 C-3.58 5.05, 3.33 -2.57, 5 0" stroke="none" stroke-width="0" fill="#a5d8ff"></path><path d="M5 0 C7.71 -0.13, 9.75 0.15, 15 0 M5 0 C7.58 0.34, 11.05 -0.44, 15 0 M15 0 C18.12 -1.41, 21.25 1.78, 20 5 M15 0 C17.62 -0.07, 21.59 -0.43, 20 5 M20 5 C19.26 8.83, 20.88 12.31, 20 15 M20 5 C19.86 9.18, 20.38 12.71, 20 15 M20 15 C21.81 19.53, 18.78 18.96, 15 20 M20 15 C19.9 17.65, 18.36 21.38, 15 20 M15 20 C11.67 20.82, 9.34 20.75, 5 20 M15 20 C11.68 20.31, 8.31 19.96, 5 20 M5 20 C1.43 18.37, 1.78 19.61, 0 15 M5 20 C3.75 19.15, -0.96 19.13, 0 15 M0 15 C0.83 12.11, 0.23 8.32, 0 5 M0 15 C0.41 11.14, 0.14 7.44, 0 5 M0 5 C1.11 2.78, -0.14 -1.76, 5 0 M0 5 C-0.96 3.08, 3.58 -0.79, 5 0" stroke="#1e1e1e" stroke-width="2" fill="none"></path></g><g stroke-linecap="round" transform="translate(950 90) rotate(0 10 20)"><path d="M5 0 C8.27 -0.07, 9.14 1.43, 15 0 C20.02 0.82, 20.12 4.41, 20 5 C19.41 15.04, 19.86 25.07, 20 35 C22 35.09, 15.17 38.49, 15 40 C10.97 40.91, 8.42 38.71, 5 40 C3.59 39.45, -3.17 37.84, 0 35 C-2.99 20.17, -1.06 14.49, 0 5 C1.77 -0.95, 1.14 3.28, 5 0" stroke="none" stroke-width="0" fill="#a5d8ff"></path><path d="M5 0 C7.24 0.39, 10.14 -0.46, 15 0 M5 0 C7.54 -0.06, 9.47 -0.25, 15 0 M15 0 C19.61 -0.95, 21.31 1.31, 20 5 M15 0 C19.18 0.56, 20.99 0.8, 20 5 M20 5 C18.34 14.12, 20.4 25.99, 20 35 M20 5 C20.18 12.92, 20.6 21.41, 20 35 M20 35 C21.51 38.55, 16.72 39.79, 15 40 M20 35 C18.38 39.77, 18.46 39.29, 15 40 M15 40 C12.43 39.01, 8.74 39.26, 5 40 M15 40 C12.01 40.39, 8.07 39.84, 5 40 M5 40 C2.93 41.24, -0.1 40.14, 0 35 M5 40 C3.04 40.52, -1.19 38.23, 0 35 M0 35 C-0.46 26.58, -1.95 17.69, 0 5 M0 35 C0.15 22.73, -0.3 11.1, 0 5 M0 5 C1.36 -0.17, 1.65 -0.23, 5 0 M0 5 C-1.88 3.71, 3.14 2.08, 5 0" stroke="#1e1e1e" stroke-width="2" fill="none"></path></g><g stroke-linecap="round"><g transform="translate(50 50) rotate(0 0 310)"><path d="M-0.56 -1.12 C-0.59 102.4, -0.33 517.02, -0.32 620.6 M1.34 0.91 C1.14 104.11, -0.96 515.31, -1.43 618.79" stroke="#1e1e1e" stroke-width="2" fill="none"></path></g></g><mask></mask><g transform="translate(10 10) rotate(0 35.5615234375 11.5)"><text x="0" y="0" font-family="Helvetica, Segoe UI Emoji" font-size="20px" fill="#1e1e1e" text-anchor="start" style="white-space: pre;" direction="ltr" dominant-baseline="text-before-edge">CLIENT</text></g><g stroke-linecap="round"><g transform="translate(352.56577070232333 51.41933684404006) rotate(0 -1.2828853511616671 309.29033157797994)"><path d="M0.85 -0.25 C0.53 102.9, -2.03 514.58, -2.78 617.74 M-0.16 -1.42 C-0.58 101.96, -3.64 515.25, -3.83 618.84" stroke="#1e1e1e" stroke-width="2" fill="none"></path></g></g><mask></mask><g transform="translate(310 10) rotate(0 28.8916015625 11.5)"><text x="0" y="0" font-family="Helvetica, Segoe UI Emoji" font-size="20px" fill="#1e1e1e" text-anchor="start" style="white-space: pre;" direction="ltr" dominant-baseline="text-before-edge">CORE</text></g><g stroke-linecap="round"><g transform="translate(650 50) rotate(0 0 310)"><path d="M-0.33 0.8 C-0.33 104.04, -0.81 516.03, -0.65 619.2 M1.7 0.17 C2.15 103.56, 1.97 516.84, 1.72 620.31" stroke="#1e1e1e" stroke-width="2" fill="none"></path></g></g><mask></mask><g transform="translate(610 10) rotate(0 28.8916015625 11.5)"><text x="0" y="0" font-family="Helvetica, Segoe UI Emoji" font-size="20px" fill="#1e1e1e" text-anchor="start" style="white-space: pre;" direction="ltr" dominant-baseline="text-before-edge">NODE</text></g><g transform="translate(910 10) rotate(0 40.5712890625 11.5)"><text x="0" y="0" font-family="Helvetica, Segoe UI Emoji" font-size="20px" fill="#1e1e1e" text-anchor="start" style="white-space: pre;" direction="ltr" dominant-baseline="text-before-edge">OLLAMA</text></g><g stroke-linecap="round"><g transform="translate(951.0809666153018 51.061676695197775) rotate(0 -0.5404833076509021 309.4691616524011)"><path d="M-0.94 -1.06 C-1.21 102.38, -2.08 516.94, -2.08 620.1 M0.77 1 C0.91 104.18, 0.51 515.64, 0.11 618.59" stroke="#1e1e1e" stroke-width="2" fill="none"></path></g></g><mask></mask><g mask="url(#mask-4F5SX1ym80_KSCkDd-WfY)" stroke-linecap="round"><g transform="translate(650 90) rotate(0 149.5 0)"><path d="M0.04 0.51 C49.65 0.44, 249.07 0.11, 298.86 0.16 M-1.41 -0.27 C47.94 -0.17, 247.96 1.92, 297.84 1.78" stroke="#1e1e1e" stroke-width="2" fill="none"></path></g><g transform="translate(650 90) rotate(0 149.5 0)"><path d="M298.2 0.45 L283.52 6.15 L285.92 -6.31 L298.4 0.91" stroke="none" stroke-width="0" fill="#1e1e1e" fill-rule="evenodd"></path><path d="M297.84 1.78 C293.09 4.1, 287.25 6.44, 284.21 8.06 M297.84 1.78 C292.92 4.18, 288.29 7.19, 284.21 8.06 M284.21 8.06 C282.85 5.26, 284.22 2.68, 284.27 -4.62 M284.21 8.06 C283.84 3.17, 283.84 -1.38, 284.27 -4.62 M284.27 -4.62 C287.13 -3.92, 288.8 -1.72, 297.84 1.78 M284.27 -4.62 C287.66 -2.6, 290.15 -2.21, 297.84 1.78 M297.84 1.78 C297.84 1.78, 297.84 1.78, 297.84 1.78 M297.84 1.78 C297.84 1.78, 297.84 1.78, 297.84 1.78" stroke="#1e1e1e" stroke-width="2" fill="none"></path></g></g><mask id="mask-4F5SX1ym80_KSCkDd-WfY"><rect x="0" y="0" fill="#fff" width="1049" height="190"></rect><rect x="690.5595703125" y="78.5" fill="#000" width="217.880859375" height="23" opacity="1"></rect></mask><g transform="translate(690.5595703125 78.5) rotate(0 108.1665116980439 12.258885749990753)"><text x="108.9404296875" y="0" font-family="Helvetica, Segoe UI Emoji" font-size="20px" fill="#1e1e1e" text-anchor="middle" style="white-space: pre;" direction="ltr" dominant-baseline="text-before-edge">Retrieve avalible models</text></g><g stroke-linecap="round"><g transform="translate(949.0009697030209 129.373094010604) rotate(0 -149.50048485151046 0.3134529946979967)"><path d="M-0.57 -0.67 C-50.49 -0.46, -250.4 0.41, -300.03 0.62" stroke="#1e1e1e" stroke-width="2.5" fill="none" stroke-dasharray="8 10"></path></g><g transform="translate(949.0009697030209 129.373094010604) rotate(0 -149.50048485151046 0.3134529946979967)"><path d="M-276.58 -8.03 C-283.74 -7.65, -288.64 -2.67, -300.03 0.62" stroke="#1e1e1e" stroke-width="2.5" fill="none"></path></g><g transform="translate(949.0009697030209 129.373094010604) rotate(0 -149.50048485151046 0.3134529946979967)"><path d="M-276.5 9.07 C-283.6 5.08, -288.51 5.68, -300.03 0.62" stroke="#1e1e1e" stroke-width="2.5" fill="none"></path></g></g><mask></mask><g mask="url(#mask-Fi2gTIfooDHGo0kWg1N1D)" stroke-linecap="round"><g transform="translate(651.32976333648 232.6874996899474) rotate(0 -150.33244083412 -0.792624784964147)"><path d="M0.69 -0.35 C-49.7 -0.31, -250.92 -0.72, -301.33 -0.89 M-0.41 -1.59 C-50.49 -1.78, -249.13 -2.92, -298.97 -2.64" stroke="#1e1e1e" stroke-width="2" fill="none"></path></g><g transform="translate(651.32976333648 232.6874996899474) rotate(0 -150.33244083412 -0.792624784964147)"><path d="M-300.08 -2.08 L-284.29 -10.45 L-285.91 2.42 L-300.01 -2.31" stroke="none" stroke-width="0" fill="#1e1e1e" fill-rule="evenodd"></path><path d="M-298.97 -2.64 C-294.12 -5.99, -287.57 -8.94, -285.37 -8.97 M-298.97 -2.64 C-295.32 -3.99, -290.91 -6.41, -285.37 -8.97 M-285.37 -8.97 C-284.83 -6.55, -284.57 -2.73, -285.38 3.71 M-285.37 -8.97 C-284.94 -5.21, -285.87 -1.33, -285.38 3.71 M-285.38 3.71 C-287.39 3.57, -291.1 1.64, -298.97 -2.64 M-285.38 3.71 C-288.33 1.43, -292.47 -0.11, -298.97 -2.64 M-298.97 -2.64 C-298.97 -2.64, -298.97 -2.64, -298.97 -2.64 M-298.97 -2.64 C-298.97 -2.64, -298.97 -2.64, -298.97 -2.64" stroke="#1e1e1e" stroke-width="2" fill="none"></path></g></g><mask id="mask-Fi2gTIfooDHGo0kWg1N1D"><rect x="0" y="0" fill="#fff" width="1051.99464500472" height="334.2727492598757"></rect><rect x="404.85474437736" y="220.39487490498317" fill="#000" width="192.28515625" height="23" opacity="1"></rect></mask><g transform="translate(404.85474437736 220.39487490498323) rotate(0 96.15513580068932 10.773714826376192)"><text x="96.142578125" y="0" font-family="Helvetica, Segoe UI Emoji" font-size="20px" fill="#1e1e1e" text-anchor="middle" style="white-space: pre;" direction="ltr" dominant-baseline="text-before-edge">Poll work with models</text></g><g mask="url(#mask-5inBmfXgpZ1eERaYVdoQ_)" stroke-linecap="round"><g transform="translate(50.625887713581506 371.60431150636634) rotate(0 150 0)"><path d="M-0.63 -1.03 C49.22 -1.13, 249.12 0.32, 299.33 0.34 M1.25 1.05 C51.47 0.48, 251.87 -1.42, 301.69 -1.6" stroke="#1e1e1e" stroke-width="2" fill="none"></path></g><g transform="translate(50.625887713581506 371.60431150636634) rotate(0 150 0)"><path d="M301.25 -1.42 L289.91 5.81 L287.68 -9.46 L302.3 -2.01" stroke="none" stroke-width="0" fill="#1e1e1e" fill-rule="evenodd"></path><path d="M301.69 -1.6 C296.13 -0.45, 293.49 3.25, 288.14 4.83 M301.69 -1.6 C298.23 -0.11, 296.02 0.96, 288.14 4.83 M288.14 4.83 C289.1 2.83, 289.09 -2.4, 288.06 -7.85 M288.14 4.83 C288.32 0.49, 288.27 -3.87, 288.06 -7.85 M288.06 -7.85 C290.79 -7.11, 296.28 -5.47, 301.69 -1.6 M288.06 -7.85 C293.74 -5.91, 298.81 -2.71, 301.69 -1.6 M301.69 -1.6 C301.69 -1.6, 301.69 -1.6, 301.69 -1.6 M301.69 -1.6 C301.69 -1.6, 301.69 -1.6, 301.69 -1.6" stroke="#1e1e1e" stroke-width="2" fill="none"></path></g></g><mask id="mask-5inBmfXgpZ1eERaYVdoQ_"><rect x="0" y="0" fill="#fff" width="450.6258877135815" height="471.60431150636634"></rect><rect x="168.3944424010815" y="360.10431150636634" fill="#000" width="64.462890625" height="23" opacity="1"></rect></mask><g transform="translate(168.3944424010815 360.10431150636634) rotate(0 32.76552944030141 11.222852782541906)"><text x="32.2314453125" y="0" font-family="Helvetica, Segoe UI Emoji" font-size="20px" fill="#1e1e1e" text-anchor="middle" style="white-space: pre;" direction="ltr" dominant-baseline="text-before-edge">Prompt</text></g><g mask="url(#mask-sttp2ZuyK31SH7hfvxPM1)" stroke-linecap="round"><g transform="translate(651.8438891604546 313.3730040094663) rotate(0 -150.33244083412 -0.7926247849641186)"><path d="M-1.14 -0.08 C-51.38 -0.27, -251.14 -1.91, -301.25 -2.27 M0.46 -1.17 C-49.4 -1.11, -248.85 -1.07, -298.85 -1.09" stroke="#1e1e1e" stroke-width="2" fill="none"></path></g><g transform="translate(651.8438891604546 313.3730040094663) rotate(0 -150.33244083412 -0.7926247849641186)"><path d="M-299.45 -1.48 L-283.75 -6.79 L-286.2 3.84 L-298.73 -1.17" stroke="none" stroke-width="0" fill="#1e1e1e" fill-rule="evenodd"></path><path d="M-298.85 -1.09 C-294.61 -3.7, -291.07 -6.44, -285.26 -7.43 M-298.85 -1.09 C-295.44 -3.09, -291.8 -3.98, -285.26 -7.43 M-285.26 -7.43 C-284.69 -2.95, -286.24 -0.98, -285.26 5.25 M-285.26 -7.43 C-284.61 -5.26, -285.82 -2.68, -285.26 5.25 M-285.26 5.25 C-287.67 4.81, -290.69 2.74, -298.85 -1.09 M-285.26 5.25 C-291.15 2.84, -295.95 1.13, -298.85 -1.09 M-298.85 -1.09 C-298.85 -1.09, -298.85 -1.09, -298.85 -1.09 M-298.85 -1.09 C-298.85 -1.09, -298.85 -1.09, -298.85 -1.09" stroke="#1e1e1e" stroke-width="2" fill="none"></path></g></g><mask id="mask-sttp2ZuyK31SH7hfvxPM1"><rect x="0" y="0" fill="#fff" width="1052.5087708286947" height="414.9582535793946"></rect><rect x="460.94504207633463" y="301.08037922450217" fill="#000" width="81.1328125" height="23" opacity="1"></rect></mask><g transform="translate(460.94504207633463 301.08037922450217) rotate(0 40.50092349867805 11.116372475773062)"><text x="40.56640625" y="0" font-family="Helvetica, Segoe UI Emoji" font-size="20px" fill="#1e1e1e" text-anchor="middle" style="white-space: pre;" direction="ltr" dominant-baseline="text-before-edge">Poll work</text></g><g mask="url(#mask-kIWSOKJPTJpeDR-i2fJUk)" stroke-linecap="round"><g transform="translate(651.9482365245467 392.37193418062293) rotate(0 -150.33244083412 -0.7926247849641186)"><path d="M0.68 -0.6 C-49.31 -0.8, -250.85 -2.08, -300.88 -2.37 M-0.42 1.69 C-50.51 1.74, -252.07 -0.72, -301.95 -1.25" stroke="#1e1e1e" stroke-width="2" fill="none"></path></g><g transform="translate(651.9482365245467 392.37193418062293) rotate(0 -150.33244083412 -0.7926247849641186)"><path d="M-300.92 -0.93 L-287.77 -7.68 L-288.03 5.31 L-301.68 -2.26" stroke="none" stroke-width="0" fill="#1e1e1e" fill-rule="evenodd"></path><path d="M-301.95 -1.25 C-299.61 -2.97, -296.82 -2.63, -288.28 -7.43 M-301.95 -1.25 C-298.53 -2.38, -294.92 -3.6, -288.28 -7.43 M-288.28 -7.43 C-287.94 -4.6, -289.28 -0.5, -288.43 5.24 M-288.28 -7.43 C-287.82 -3.15, -288.24 -0.37, -288.43 5.24 M-288.43 5.24 C-291.22 2.89, -294.51 0.44, -301.95 -1.25 M-288.43 5.24 C-291.29 4.03, -294.61 2.48, -301.95 -1.25 M-301.95 -1.25 C-301.95 -1.25, -301.95 -1.25, -301.95 -1.25 M-301.95 -1.25 C-301.95 -1.25, -301.95 -1.25, -301.95 -1.25" stroke="#1e1e1e" stroke-width="2" fill="none"></path></g></g><mask id="mask-kIWSOKJPTJpeDR-i2fJUk"><rect x="0" y="0" fill="#fff" width="1052.6131181927867" height="493.9571837505512"></rect><rect x="461.0493894404267" y="380.0793093956588" fill="#000" width="81.1328125" height="23" opacity="1"></rect></mask><g transform="translate(461.0493894404267 380.0793093956588) rotate(0 40.26482740070196 11.954317286060643)"><text x="40.56640625" y="0" font-family="Helvetica, Segoe UI Emoji" font-size="20px" fill="#1e1e1e" text-anchor="middle" style="white-space: pre;" direction="ltr" dominant-baseline="text-before-edge">Poll work</text></g><g mask="url(#mask-DIeYXkAW5R_j4jvn-YimI)" stroke-linecap="round"><g transform="translate(351.2833548563067 410.7866846106947) rotate(0 150 0)"><path d="M1.15 -0.78 C51.36 -0.61, 251.18 0.01, 301.06 0.23" stroke="#1e1e1e" stroke-width="2.5" fill="none" stroke-dasharray="8 10"></path></g><g transform="translate(351.2833548563067 410.7866846106947) rotate(0 150 0)"><path d="M277.54 8.69 C282.92 7.85, 291.23 4.39, 301.06 0.23" stroke="#1e1e1e" stroke-width="2.5" fill="none"></path></g><g transform="translate(351.2833548563067 410.7866846106947) rotate(0 150 0)"><path d="M277.6 -8.41 C282.86 -4.43, 291.14 -3.07, 301.06 0.23" stroke="#1e1e1e" stroke-width="2.5" fill="none"></path></g></g><mask id="mask-DIeYXkAW5R_j4jvn-YimI"><rect x="0" y="0" fill="#fff" width="751.2833548563067" height="510.7866846106947"></rect><rect x="394.5743704813067" y="399.2866846106947" fill="#000" width="213.41796875" height="23" opacity="1"></rect></mask><g transform="translate(394.5743704813067 399.2866846106947) rotate(0 107.81282160505657 11.226932058483328)"><text x="106.708984375" y="0" font-family="Helvetica, Segoe UI Emoji" font-size="20px" fill="#1e1e1e" text-anchor="middle" style="white-space: pre;" direction="ltr" dominant-baseline="text-before-edge">Forward prompt request</text></g><g mask="url(#mask-eFX15pLtQtoLIGVCtCk2F)" stroke-linecap="round"><g transform="translate(651.7474713345337 430.77921334966356) rotate(0 150 0)"><path d="M-0.19 0.57 C49.97 0.7, 250.35 1.12, 300.32 0.88 M-1.75 -0.17 C48.34 -0.39, 249.47 -0.81, 299.53 -0.78" stroke="#1e1e1e" stroke-width="2" fill="none"></path></g><g transform="translate(651.7474713345337 430.77921334966356) rotate(0 150 0)"><path d="M299.05 -2.27 L285.32 4.75 L285.59 -8.67 L300.43 -2.07" stroke="none" stroke-width="0" fill="#1e1e1e" fill-rule="evenodd"></path><path d="M299.53 -0.78 C296.9 1.17, 293.92 1.87, 285.94 5.58 M299.53 -0.78 C296.92 0.85, 293.06 1.7, 285.94 5.58 M285.94 5.58 C285.19 0.5, 286.95 -4.35, 285.93 -7.1 M285.94 5.58 C286.1 1.57, 285.95 -3.41, 285.93 -7.1 M285.93 -7.1 C291.44 -5.96, 296.05 -2.74, 299.53 -0.78 M285.93 -7.1 C290.44 -6.04, 293.94 -3.92, 299.53 -0.78 M299.53 -0.78 C299.53 -0.78, 299.53 -0.78, 299.53 -0.78 M299.53 -0.78 C299.53 -0.78, 299.53 -0.78, 299.53 -0.78" stroke="#1e1e1e" stroke-width="2" fill="none"></path></g></g><mask id="mask-eFX15pLtQtoLIGVCtCk2F"><rect x="0" y="0" fill="#fff" width="1051.7474713345337" height="530.7792133496636"></rect><rect x="695.0384869595337" y="419.27921334966356" fill="#000" width="213.41796875" height="23" opacity="1"></rect></mask><g transform="translate(695.0384869595337 419.27921334966356) rotate(0 105.99286800412006 11.586844943713459)"><text x="106.708984375" y="0" font-family="Helvetica, Segoe UI Emoji" font-size="20px" fill="#1e1e1e" text-anchor="middle" style="white-space: pre;" direction="ltr" dominant-baseline="text-before-edge">Forward prompt request</text></g><g mask="url(#mask-GOcVMpsNhZzwA_2hR3ch8)" stroke-linecap="round"><g transform="translate(951.0998648427426 552.8861456754945) rotate(0 -150 0)"><path d="M-1.17 0.83 C-51.21 0.75, -249.52 -0.23, -299.36 -0.22" stroke="#1e1e1e" stroke-width="2.5" fill="none" stroke-dasharray="8 10"></path></g><g transform="translate(951.0998648427426 552.8861456754945) rotate(0 -150 0)"><path d="M-275.84 -8.71 C-283.21 -4.7, -293.73 -2.93, -299.36 -0.22" stroke="#1e1e1e" stroke-width="2.5" fill="none"></path></g><g transform="translate(951.0998648427426 552.8861456754945) rotate(0 -150 0)"><path d="M-275.89 8.39 C-283.27 6.02, -293.78 1.42, -299.36 -0.22" stroke="#1e1e1e" stroke-width="2.5" fill="none"></path></g></g><mask id="mask-GOcVMpsNhZzwA_2hR3ch8"><rect x="0" y="0" fill="#fff" width="1351.0998648427426" height="652.8861456754945"></rect><rect x="724.9524039052426" y="541.3861456754945" fill="#000" width="152.294921875" height="23" opacity="1"></rect></mask><g transform="translate(724.9524039052426 541.3861456754945) rotate(0 75.88199112638813 11.80673473465663)"><text x="76.1474609375" y="0" font-family="Helvetica, Segoe UI Emoji" font-size="20px" fill="#1e1e1e" text-anchor="middle" style="white-space: pre;" direction="ltr" dominant-baseline="text-before-edge">Stream response</text></g><g mask="url(#mask-irwi2dtLFXgzlK8FNTwBt)" stroke-linecap="round"><g transform="translate(651.0998648427426 552.8861456754945) rotate(0 -150 0)"><path d="M-0.65 1.09 C-50.66 1.04, -251.34 0.85, -301.05 0.66" stroke="#1e1e1e" stroke-width="2.5" fill="none" stroke-dasharray="8 10"></path></g><g transform="translate(651.0998648427426 552.8861456754945) rotate(0 -150 0)"><path d="M-277.54 -7.84 C-280.67 -7.9, -286.41 -2.49, -301.05 0.66" stroke="#1e1e1e" stroke-width="2.5" fill="none"></path></g><g transform="translate(651.0998648427426 552.8861456754945) rotate(0 -150 0)"><path d="M-277.57 9.26 C-280.84 5.55, -286.57 7.31, -301.05 0.66" stroke="#1e1e1e" stroke-width="2.5" fill="none"></path></g></g><mask id="mask-irwi2dtLFXgzlK8FNTwBt"><rect x="0" y="0" fill="#fff" width="1051.0998648427426" height="652.8861456754945"></rect><rect x="424.9524039052426" y="541.3861456754945" fill="#000" width="152.294921875" height="23" opacity="1"></rect></mask><g transform="translate(424.9524039052426 541.3861456754945) rotate(0 75.2965582393108 12.375855717808008)"><text x="76.1474609375" y="0" font-family="Helvetica, Segoe UI Emoji" font-size="20px" fill="#1e1e1e" text-anchor="middle" style="white-space: pre;" direction="ltr" dominant-baseline="text-before-edge">Stream response</text></g><g mask="url(#mask-w-YJU0MjBqdmx9ZdzKdwV)" stroke-linecap="round"><g transform="translate(351.0998648427426 552.8861456754945) rotate(0 -150 0)"><path d="M1.14 -0.48 C-49.12 -0.7, -250.81 -1.29, -301.1 -1.18" stroke="#1e1e1e" stroke-width="2.5" fill="none" stroke-dasharray="8 10"></path></g><g transform="translate(351.0998648427426 552.8861456754945) rotate(0 -150 0)"><path d="M-277.6 -9.71 C-286.34 -8.43, -295.46 -4.71, -301.1 -1.18" stroke="#1e1e1e" stroke-width="2.5" fill="none"></path></g><g transform="translate(351.0998648427426 552.8861456754945) rotate(0 -150 0)"><path d="M-277.61 7.39 C-286.37 2.88, -295.49 0.81, -301.1 -1.18" stroke="#1e1e1e" stroke-width="2.5" fill="none"></path></g></g><mask id="mask-w-YJU0MjBqdmx9ZdzKdwV"><rect x="0" y="0" fill="#fff" width="751.0998648427426" height="652.8861456754945"></rect><rect x="124.95240390524259" y="541.3861456754945" fill="#000" width="152.294921875" height="23" opacity="1"></rect></mask><g transform="translate(124.95240390524259 541.3861456754945) rotate(0 76.16623772159232 10.666807362065583)"><text x="76.1474609375" y="0" font-family="Helvetica, Segoe UI Emoji" font-size="20px" fill="#1e1e1e" text-anchor="middle" style="white-space: pre;" direction="ltr" dominant-baseline="text-before-edge">Stream response</text></g><g mask="url(#mask-u50zHaj09LsiXr53KsSHF)" stroke-linecap="round"><g transform="translate(650 150) rotate(0 -150 0)"><path d="M0.39 -0.58 C-49.59 -0.56, -250.65 0.06, -300.65 0.18 M-0.86 1.72 C-50.38 1.96, -248.4 1.85, -298.27 1.81" stroke="#1e1e1e" stroke-width="2" fill="none"></path></g><g transform="translate(650 150) rotate(0 -150 0)"><path d="M-297.52 0.08 L-284.29 -3.71 L-284.16 8.99 L-299.34 1.56" stroke="none" stroke-width="0" fill="#1e1e1e" fill-rule="evenodd"></path><path d="M-298.27 1.81 C-295.78 -0.55, -291.59 -0.7, -284.67 -4.52 M-298.27 1.81 C-293.43 0.07, -290.18 -1.47, -284.67 -4.52 M-284.67 -4.52 C-284.01 -1, -285.07 3.48, -284.68 8.16 M-284.67 -4.52 C-284.74 -0.7, -284.18 1.81, -284.68 8.16 M-284.68 8.16 C-287.79 6.24, -290.71 5.63, -298.27 1.81 M-284.68 8.16 C-288.09 6.97, -293.08 4.78, -298.27 1.81 M-298.27 1.81 C-298.27 1.81, -298.27 1.81, -298.27 1.81 M-298.27 1.81 C-298.27 1.81, -298.27 1.81, -298.27 1.81" stroke="#1e1e1e" stroke-width="2" fill="none"></path></g></g><mask id="mask-u50zHaj09LsiXr53KsSHF"><rect x="0" y="0" fill="#fff" width="1050" height="250"></rect><rect x="444.404296875" y="138.5" fill="#000" width="111.19140625" height="23" opacity="1"></rect></mask><g transform="translate(444.404296875 138.5) rotate(0 55.46906388029447 12.141779044338477)"><text x="55.595703125" y="0" font-family="Helvetica, Segoe UI Emoji" font-size="20px" fill="#1e1e1e" text-anchor="middle" style="white-space: pre;" direction="ltr" dominant-baseline="text-before-edge">Authenticate</text></g><g mask="url(#mask-W-UCqnzZdsVDJZd58WcdV)" stroke-linecap="round"><g transform="translate(350 170) rotate(0 150 0)"><path d="M0.78 -0.08 C51.14 -0.34, 251.34 -0.99, 301.19 -0.92" stroke="#1e1e1e" stroke-width="2.5" fill="none" stroke-dasharray="8 10"></path></g><g transform="translate(350 170) rotate(0 150 0)"><path d="M277.71 7.66 C282.67 7.61, 286.42 3.55, 301.19 -0.92" stroke="#1e1e1e" stroke-width="2.5" fill="none"></path></g><g transform="translate(350 170) rotate(0 150 0)"><path d="M277.69 -9.44 C282.75 -5.74, 286.5 -6.06, 301.19 -0.92" stroke="#1e1e1e" stroke-width="2.5" fill="none"></path></g></g><mask id="mask-W-UCqnzZdsVDJZd58WcdV"><rect x="0" y="0" fill="#fff" width="750" height="270"></rect><rect x="462.75390625" y="158.5" fill="#000" width="74.4921875" height="23" opacity="1"></rect></mask><g transform="translate(462.75390625 158.5) rotate(0 38.2286112330853 10.998851423519056)"><text x="37.24609375" y="0" font-family="Helvetica, Segoe UI Emoji" font-size="20px" fill="#1e1e1e" text-anchor="middle" style="white-space: pre;" direction="ltr" dominant-baseline="text-before-edge">Approve</text></g><g mask="url(#mask-PHVKsGKG263uPDQyD83hd)" stroke-linecap="round"><g transform="translate(650.330499393428 632.3528809121904) rotate(0 -150.33244083412 -0.7926247849641186)"><path d="M-0.34 0.44 C-50.24 0.01, -249.65 -1.95, -299.82 -2.35 M1.69 -0.37 C-48.27 -0.68, -250.23 -1.14, -300.33 -1.22" stroke="#1e1e1e" stroke-width="2" fill="none"></path></g><g transform="translate(650.330499393428 632.3528809121904) rotate(0 -150.33244083412 -0.7926247849641186)"><path d="M-302.07 -2.77 L-286.84 -5.89 L-287.02 6.01 L-301.37 0.06" stroke="none" stroke-width="0" fill="#1e1e1e" fill-rule="evenodd"></path><path d="M-300.33 -1.22 C-296.15 -1.82, -294.02 -5.47, -286.72 -7.53 M-300.33 -1.22 C-297.12 -2.42, -293.31 -5.28, -286.72 -7.53 M-286.72 -7.53 C-286.89 -5.79, -286.43 -2.19, -286.75 5.15 M-286.72 -7.53 C-286.12 -3.8, -287.31 -1.35, -286.75 5.15 M-286.75 5.15 C-290.17 2.28, -295.18 1.44, -300.33 -1.22 M-286.75 5.15 C-291.49 3.12, -297.61 0.71, -300.33 -1.22 M-300.33 -1.22 C-300.33 -1.22, -300.33 -1.22, -300.33 -1.22 M-300.33 -1.22 C-300.33 -1.22, -300.33 -1.22, -300.33 -1.22" stroke="#1e1e1e" stroke-width="2" fill="none"></path></g></g><mask id="mask-PHVKsGKG263uPDQyD83hd"><rect x="0" y="0" fill="#fff" width="1050.995381061668" height="733.9381304821186"></rect><rect x="459.431652309308" y="620.0602561272262" fill="#000" width="81.1328125" height="23" opacity="1"></rect></mask><g transform="translate(459.431652309308 620.0602561272262) rotate(0 41.57836347988814 11.337070999294497)"><text x="40.56640625" y="0" font-family="Helvetica, Segoe UI Emoji" font-size="20px" fill="#1e1e1e" text-anchor="middle" style="white-space: pre;" direction="ltr" dominant-baseline="text-before-edge">Poll work</text></g><g stroke-linecap="round"><g transform="translate(350 330) rotate(0 150 0)"><path d="M0.51 0.94 C50.55 0.86, 249.38 0.23, 299.43 0.08" stroke="#1e1e1e" stroke-width="2.5" fill="none" stroke-dasharray="8 10"></path></g><g transform="translate(350 330) rotate(0 150 0)"><path d="M275.96 8.7 C282.99 5.63, 287.08 5.95, 299.43 0.08" stroke="#1e1e1e" stroke-width="2.5" fill="none"></path></g><g transform="translate(350 330) rotate(0 150 0)"><path d="M275.91 -8.4 C283.03 -7.46, 287.13 -3.12, 299.43 0.08" stroke="#1e1e1e" stroke-width="2.5" fill="none"></path></g></g><mask></mask><g stroke-linecap="round"><g transform="translate(350 650) rotate(0 150 0)"><path d="M0.73 -0.75 C50.61 -0.53, 249.55 1.07, 299.47 1.06" stroke="#1e1e1e" stroke-width="2.5" fill="none" stroke-dasharray="8 10"></path></g><g transform="translate(350 650) rotate(0 150 0)"><path d="M275.94 9.51 C282.07 5.84, 292.45 4.47, 299.47 1.06" stroke="#1e1e1e" stroke-width="2.5" fill="none"></path></g><g transform="translate(350 650) rotate(0 150 0)"><path d="M276.02 -7.59 C282.09 -5.91, 292.44 -1.94, 299.47 1.06" stroke="#1e1e1e" stroke-width="2.5" fill="none"></path></g></g><mask></mask></svg>